<svg id="visual" viewBox="0 0 900 600" width="900" height="600" xmlns="http://www.w3.org/2000/svg" xmlns:xlink="http://www.w3.org/1999/xlink" version="1.1"><rect x="0" y="0" width="900" height="600" fill="#001220"></rect><defs><linearGradient id="grad1_0" x1="33.3%" y1="100%" x2="100%" y2="0%"><stop offset="20%" stop-color="#0066ff" stop-opacity="1"></stop><stop offset="80%" stop-color="#0066ff" stop-opacity="1"></stop></linearGradient></defs><defs><linearGradient id="grad1_1" x1="33.3%" y1="100%" x2="100%" y2="0%"><stop offset="20%" stop-color="#0066ff" stop-opacity="1"></stop><stop offset="80%" stop-color="#004eb2" stop-opacity="1"></stop></linearGradient></defs><defs><linearGradient id="grad1_2" x1="33.3%" y1="100%" x2="100%" y2="0%"><stop offset="20%" stop-color="#003165" stop-opacity="1"></stop><stop offset="80%" stop-color="#004eb2" stop-opacity="1"></stop></linearGradient></defs><defs><linearGradient id="grad1_3" x1="33.3%" y1="100%" x2="100%" y2="0%"><stop offset="20%" stop-color="#003165" stop-opacity="1"></stop><stop offset="80%" stop-color="#001220" stop-opacity="1"></stop></linearGradient></defs><defs><linearGradient id="grad2_0" x1="0%" y1="100%" x2="66.7%" y2="0%"><stop offset="20%" stop-color="#0066ff" stop-opacity="1"></stop><stop offset="80%" stop-color="#0066ff" stop-opacity="1"></stop></linearGradient></defs><defs><linearGradient id="grad2_1" x1="0%" y1="100%" x2="66.7%" y2="0%"><stop offset="20%" stop-color="#004eb2" stop-opacity="1"></stop><stop offset="80%" stop-color="#0066ff" stop-opacity="1"></stop></linearGradient></defs><defs><linearGradient id="grad2_2" x1="0%" y1="100%" x2="66.7%" y2="0%"><stop offset="20%" stop-color="#004eb2" stop-opacity="1"></stop><stop offset="80%" stop-color="#003165" stop-opacity="1"></stop></linearGradient></defs><defs><linearGradient id="grad2_3" x1="0%" y1="100%" x2="66.7%" y2="0%"><stop offset="20%" stop-color="#001220" stop-opacity="1"></stop><stop offset="80%" stop-color="#003165" stop-opacity="1"></stop></linearGradient></defs><g transform="translate(900, 600)"><path d="M-405.6 0C-405.4 -57.6 -405.2 -115.2 -374.7 -155.2C-344.3 -195.3 -283.5 -217.8 -238.3 -238.3C-193.1 -258.8 -163.4 -277.3 -126.3 -304.9C-89.2 -332.4 -44.6 -369 0 -405.6L0 0Z" fill="#002241"></path><path d="M-304.2 0C-304.1 -43.2 -303.9 -86.4 -281.1 -116.4C-258.2 -146.5 -212.6 -163.3 -178.7 -178.7C-144.8 -194.1 -122.6 -208 -94.7 -228.7C-66.9 -249.3 -33.4 -276.8 0 -304.2L0 0Z" fill="#00408b"></path><path d="M-202.8 0C-202.7 -28.8 -202.6 -57.6 -187.4 -77.6C-172.1 -97.6 -141.8 -108.9 -119.1 -119.1C-96.5 -129.4 -81.7 -138.7 -63.1 -152.4C-44.6 -166.2 -22.3 -184.5 0 -202.8L0 0Z" fill="#005bd9"></path><path d="M-101.4 0C-101.4 -14.4 -101.3 -28.8 -93.7 -38.8C-86.1 -48.8 -70.9 -54.4 -59.6 -59.6C-48.3 -64.7 -40.9 -69.3 -31.6 -76.2C-22.3 -83.1 -11.1 -92.3 0 -101.4L0 0Z" fill="#0066ff"></path></g><g transform="translate(0, 0)"><path d="M405.6 0C401.4 53.9 397.2 107.8 374.7 155.2C352.3 202.6 311.6 243.6 268 268C224.4 292.4 177.9 300.4 132.8 320.6C87.6 340.8 43.8 373.2 0 405.6L0 0Z" fill="#002241"></path><path d="M304.2 0C301.1 40.4 297.9 80.9 281.1 116.4C264.2 152 233.7 182.7 201 201C168.3 219.3 133.5 225.3 99.6 240.4C65.7 255.6 32.9 279.9 0 304.2L0 0Z" fill="#00408b"></path><path d="M202.8 0C200.7 27 198.6 53.9 187.4 77.6C176.1 101.3 155.8 121.8 134 134C112.2 146.2 89 150.2 66.4 160.3C43.8 170.4 21.9 186.6 0 202.8L0 0Z" fill="#005bd9"></path><path d="M101.4 0C100.4 13.5 99.3 27 93.7 38.8C88.1 50.7 77.9 60.9 67 67C56.1 73.1 44.5 75.1 33.2 80.1C21.9 85.2 11 93.3 0 101.4L0 0Z" fill="#0066ff"></path></g></svg>